# xmcd
#
# Track frame offsets: 
#        150
#        3036
#        16756
#        33776
#        41505
#        56132
#        68055
#        81661
#        95125
#        112188
#        122139
#        142894
#        161819
#        178450
#        194581
#        209518
#        228772
#        250512
#        269955
#        287164
#        297845
#
# Disc length: 4152 seconds
#
# Revision: 0
# Processed by: cddbd v1.5.2PL0 Copyright (c) Steve Scherf et al.
# Submitted via: ExactAudioCopy v1.0b1
#
DISCID=3e103615
DTITLE=Various Artist - Macca
DYEAR=2012
DGENRE=Country
TTITLE0=Bob Hoddock - Poem, What Australia Means To Me
TTITLE1=Ian MacNamara with Kevin Bennett and Digger Revell - Bushranger
TTITLE2=Yellow Box - Down On Some Australian Coast
TTITLE3=Joanne and Gillian Vogel - Shut The Gate
TTITLE4=Penny Davies and Roger Lott - Hey Rain
TTITLE5=Ian MacNamara - Spies Like Us
TTITLE6=Don Morrison - Moonlight Midnight
TTITLE7=John Broomhall - Free As The Breeze
TTITLE8=Kevin Bennett and The Flood - You
TTITLE9=Bill Eckelschot - Dutchman’s Lament
TTITLE10=Bob Campbell - Pamulwuy
TTITLE11=The BobKatz - Little River Town (Howlong NSW)
TTITLE12=The Goodwills - Courting The Net
TTITLE13=Neil Adam - Old Grey Fergie
TTITLE14=Brian Young - Big Fella Wadumbah
TTITLE15=Enda Kenny - Easter Island
TTITLE16=Ted Egan - Sayonara Nakamura
TTITLE17=the Metropolitan Male Choir Of South Australia - Rain On The 
TTITLE17=Track
TTITLE18=Harry Young - Thanks Old Fella’
TTITLE19=Michael O'Sullivan - Magpies
TTITLE20=Country Blues - I’ve Been Everywhere
EXTD=
EXTT0=
EXTT1=
EXTT2=
EXTT3=
EXTT4=
EXTT5=
EXTT6=
EXTT7=
EXTT8=
EXTT9=
EXTT10=
EXTT11=
EXTT12=
EXTT13=
EXTT14=
EXTT15=
EXTT16=
EXTT17=
EXTT18=
EXTT19=
EXTT20=
PLAYORDER=
